<svg xmlns="http://www.w3.org/2000/svg" version="1.1" xmlns:xlink="http://www.w3.org/1999/xlink" xmlns:svgjs="http://svgjs.dev/svgjs" width="1000" height="547" viewBox="0 0 1000 547"><g transform="matrix(1,0,0,1,-0.6060506231796694,0.05327363368837723)"><svg viewBox="0 0 396 217" data-background-color="#ffffff" preserveAspectRatio="xMidYMid meet" height="547" width="1000" xmlns="http://www.w3.org/2000/svg" xmlns:xlink="http://www.w3.org/1999/xlink"><g id="tight-bounds" transform="matrix(1,0,0,1,0.23999604677914022,-0.02113402718657653)"><svg viewBox="0 0 395.52 217.04226817437188" height="217.04226817437188" width="395.52"><g><svg viewBox="0 0 395.52 217.04226817437188" height="217.04226817437188" width="395.52"><g><svg viewBox="0 0 395.52 217.04226817437188" height="217.04226817437188" width="395.52"><g><svg viewBox="0 0 395.52 217.04226817437188" height="217.04226817437188" width="395.52"><g transform="matrix(1,0,0,1,0,131.18435940244208)"><svg viewBox="0 0 395.52 85.85790877192981" height="85.85790877192981" width="395.52"><g id="textblocktransform"><svg viewBox="0 0 395.52 85.85790877192981" height="85.85790877192981" width="395.52" id="textblock"><g><svg viewBox="0 0 395.52 85.85790877192981" height="85.85790877192981" width="395.52"><g transform="matrix(1,0,0,1,0,0)"><svg width="395.52" viewBox="4.25 -35.75 213.72999572753906 46.400001525878906" height="85.85790877192981" data-palette-color="#1ebbd7"><path d="M28.55 0L4.25 0 4.25-35.5 8.75-35.5 8.75-4 28.55-4 28.55 0ZM30.7-7.55L30.7-7.55Q30.7-10.05 32.12-11.88 33.55-13.7 36.05-14.7 38.55-15.7 41.85-15.7L41.85-15.7Q43.6-15.7 45.55-15.43 47.5-15.15 49-14.6L49-14.6 49-16.5Q49-19.5 47.2-21.23 45.4-22.95 42.1-22.95L42.1-22.95Q39.95-22.95 37.97-22.18 36-21.4 33.8-19.95L33.8-19.95 32.2-23.05Q34.75-24.8 37.3-25.68 39.85-26.55 42.6-26.55L42.6-26.55Q47.6-26.55 50.5-23.78 53.4-21 53.4-16.05L53.4-16.05 53.4-5Q53.4-4.2 53.72-3.83 54.05-3.45 54.8-3.4L54.8-3.4 54.8 0Q54.15 0.1 53.67 0.15 53.2 0.2 52.9 0.2L52.9 0.2Q51.35 0.2 50.57-0.65 49.8-1.5 49.7-2.45L49.7-2.45 49.6-4.1Q47.9-1.9 45.15-0.7 42.4 0.5 39.7 0.5L39.7 0.5Q37.1 0.5 35.05-0.58 33-1.65 31.85-3.48 30.7-5.3 30.7-7.55ZM47.7-5.7L47.7-5.7Q48.3-6.4 48.65-7.13 49-7.85 49-8.35L49-8.35 49-11.6Q47.45-12.2 45.75-12.53 44.05-12.85 42.4-12.85L42.4-12.85Q39.05-12.85 36.97-11.53 34.9-10.2 34.9-7.9L34.9-7.9Q34.9-6.65 35.57-5.48 36.25-4.3 37.57-3.55 38.9-2.8 40.85-2.8L40.85-2.8Q42.9-2.8 44.75-3.63 46.6-4.45 47.7-5.7ZM69.4 0.5L69.4 0.5Q66.15 0.5 63.3-0.58 60.45-1.65 58.4-3.8L58.4-3.8 60.1-6.9Q62.35-4.8 64.6-3.9 66.85-3 69.2-3L69.2-3Q71.9-3 73.6-4.03 75.3-5.05 75.3-7.05L75.3-7.05Q75.3-8.5 74.42-9.2 73.55-9.9 71.95-10.38 70.35-10.85 68.15-11.45L68.15-11.45Q65.45-12.25 63.6-13.15 61.75-14.05 60.8-15.4 59.85-16.75 59.85-18.8L59.85-18.8Q59.85-21.3 61.15-23.03 62.45-24.75 64.72-25.65 67-26.55 69.9-26.55L69.9-26.55Q72.8-26.55 75.15-25.65 77.5-24.75 79.2-23L79.2-23 77.2-19.95Q75.65-21.55 73.8-22.33 71.95-23.1 69.65-23.1L69.65-23.1Q68.3-23.1 67-22.78 65.7-22.45 64.85-21.63 64-20.8 64-19.3L64-19.3Q64-18.05 64.67-17.32 65.35-16.6 66.67-16.1 68-15.6 69.9-15L69.9-15Q72.85-14.15 75.02-13.3 77.2-12.45 78.4-11.1 79.6-9.75 79.6-7.35L79.6-7.35Q79.6-3.65 76.8-1.58 74 0.5 69.4 0.5ZM97.29-4.8L98.34-1.3Q97.79-1.05 96.84-0.65 95.89-0.25 94.64 0.05 93.39 0.35 91.99 0.35L91.99 0.35Q90.39 0.35 89.04-0.23 87.69-0.8 86.89-2.02 86.09-3.25 86.09-5.1L86.09-5.1 86.09-22.65 82.54-22.65 82.54-26.1 86.09-26.1 86.09-34.8 90.49-34.8 90.49-26.1 96.34-26.1 96.34-22.65 90.49-22.65 90.49-6.45Q90.59-5.05 91.44-4.38 92.29-3.7 93.44-3.7L93.44-3.7Q94.74-3.7 95.84-4.15 96.94-4.6 97.29-4.8L97.29-4.8ZM138.74-31.7L136.64-28.05Q136.04-28.75 135.04-29.4 134.04-30.05 132.79-30.58 131.54-31.1 130.06-31.43 128.59-31.75 126.99-31.75L126.99-31.75Q122.89-31.75 120.94-30.2 118.99-28.65 118.99-25.95L118.99-25.95Q118.99-24.05 119.99-22.95 120.99-21.85 123.06-21.15 125.14-20.45 128.34-19.7L128.34-19.7Q132.04-18.9 134.74-17.75 137.44-16.6 138.89-14.68 140.34-12.75 140.34-9.55L140.34-9.55Q140.34-7 139.36-5.13 138.39-3.25 136.64-2.02 134.89-0.8 132.54-0.23 130.19 0.35 127.44 0.35L127.44 0.35Q124.74 0.35 122.16-0.23 119.59-0.8 117.29-1.9 114.99-3 112.99-4.65L112.99-4.65 115.14-8.45Q115.94-7.6 117.21-6.78 118.49-5.95 120.11-5.25 121.74-4.55 123.64-4.13 125.54-3.7 127.54-3.7L127.54-3.7Q131.34-3.7 133.44-5.08 135.54-6.45 135.54-9.1L135.54-9.1Q135.54-11.1 134.36-12.3 133.19-13.5 130.89-14.3 128.59-15.1 125.29-15.9L125.29-15.9Q121.69-16.8 119.24-17.88 116.79-18.95 115.56-20.7 114.34-22.45 114.34-25.25L114.34-25.25Q114.34-28.65 115.99-31 117.64-33.35 120.54-34.55 123.44-35.75 127.09-35.75L127.09-35.75Q129.49-35.75 131.56-35.25 133.64-34.75 135.44-33.85 137.24-32.95 138.74-31.7L138.74-31.7ZM157.49-4.8L158.54-1.3Q157.99-1.05 157.04-0.65 156.09-0.25 154.84 0.05 153.59 0.35 152.19 0.35L152.19 0.35Q150.59 0.35 149.24-0.23 147.89-0.8 147.09-2.02 146.29-3.25 146.29-5.1L146.29-5.1 146.29-22.65 142.74-22.65 142.74-26.1 146.29-26.1 146.29-34.8 150.69-34.8 150.69-26.1 156.54-26.1 156.54-22.65 150.69-22.65 150.69-6.45Q150.79-5.05 151.64-4.38 152.49-3.7 153.64-3.7L153.64-3.7Q154.94-3.7 156.04-4.15 157.14-4.6 157.49-4.8L157.49-4.8ZM173.68 0.5L173.68 0.5Q170.73 0.5 168.33-0.58 165.93-1.65 164.18-3.53 162.43-5.4 161.48-7.85 160.53-10.3 160.53-13L160.53-13Q160.53-15.75 161.48-18.2 162.43-20.65 164.18-22.53 165.93-24.4 168.36-25.48 170.78-26.55 173.73-26.55L173.73-26.55Q176.63-26.55 179.03-25.48 181.43-24.4 183.21-22.53 184.98-20.65 185.93-18.2 186.88-15.75 186.88-13L186.88-13Q186.88-10.3 185.93-7.85 184.98-5.4 183.23-3.53 181.48-1.65 179.06-0.58 176.63 0.5 173.68 0.5ZM165.03-12.95L165.03-12.95Q165.03-10.25 166.21-8.05 167.38-5.85 169.33-4.58 171.28-3.3 173.68-3.3L173.68-3.3Q176.08-3.3 178.06-4.6 180.03-5.9 181.21-8.13 182.38-10.35 182.38-13.05L182.38-13.05Q182.38-15.75 181.21-17.95 180.03-20.15 178.06-21.45 176.08-22.75 173.68-22.75L173.68-22.75Q171.28-22.75 169.33-21.43 167.38-20.1 166.21-17.9 165.03-15.7 165.03-12.95ZM206.28 0.5L206.28 0.5Q203.08 0.5 200.58-1.1 198.08-2.7 196.63-5.15L196.63-5.15 196.63 10.65 192.23 10.65 192.23-26.1 196.13-26.1 196.13-21.2Q197.68-23.6 200.18-25.08 202.68-26.55 205.63-26.55L205.63-26.55Q208.33-26.55 210.58-25.45 212.83-24.35 214.48-22.45 216.13-20.55 217.06-18.13 217.98-15.7 217.98-13.05L217.98-13.05Q217.98-9.35 216.5-6.25 215.03-3.15 212.38-1.33 209.73 0.5 206.28 0.5ZM204.93-3.3L204.93-3.3Q206.88-3.3 208.46-4.13 210.03-4.95 211.16-6.33 212.28-7.7 212.88-9.45 213.48-11.2 213.48-13.05L213.48-13.05Q213.48-15 212.81-16.75 212.13-18.5 210.91-19.85 209.68-21.2 208.06-21.98 206.43-22.75 204.53-22.75L204.53-22.75Q203.33-22.75 202.06-22.3 200.78-21.85 199.63-21.03 198.48-20.2 197.68-19.15 196.88-18.1 196.63-16.9L196.63-16.9 196.63-9.45Q197.38-7.75 198.63-6.35 199.88-4.95 201.53-4.13 203.18-3.3 204.93-3.3Z" opacity="1" transform="matrix(1,0,0,1,0,0)" fill="#1ebbd7" class="undefined-text-0" data-fill-palette-color="primary" id="text-0"></path></svg></g></svg></g></svg></g></svg></g><g transform="matrix(1,0,0,1,155.0414536377906,0)"><svg viewBox="0 0 85.43709272441879 118.65562992280701" height="118.65562992280701" width="85.43709272441879"><g><svg xmlns="http://www.w3.org/2000/svg" xmlns:xlink="http://www.w3.org/1999/xlink" version="1.1" x="0" y="0" viewBox="16.000001907348633 2.9000000953674316 67.9000015258789 94.29999542236328" enable-background="new 0 0 100 100" xml:space="preserve" height="118.65562992280701" width="85.43709272441879" class="icon-icon-0" data-fill-palette-color="accent" id="icon-0"><path d="M71.1 19.5C69.7 10 61.7 2.9 51.9 2.9c-7.1 0-13.7 4-17 10.2-0.8-0.2-1.6-0.3-2.5-0.3-5.7 0-10.3 4.6-10.3 10.3 0 0.9 0.1 1.8 0.3 2.6-4 2.7-6.4 7.2-6.4 12 0 7.9 6.3 14.9 13.8 15.3 0 0 0 0 0.1 0h38.5c0 0 0.1 0 0.1 0 8.6-0.6 15.4-8 15.4-16.9C83.9 28.1 78.5 21.2 71.1 19.5zM68.4 50.5H29.9c-6.2-0.4-11.4-6.2-11.4-12.8 0-4.3 2.3-8.3 6-10.4 0.5-0.3 0.7-0.9 0.5-1.5-0.3-0.8-0.5-1.7-0.5-2.7 0-4.3 3.5-7.8 7.8-7.8 0.9 0 1.8 0.2 2.7 0.5 0.6 0.2 1.3-0.1 1.5-0.6 2.8-5.9 8.8-9.7 15.3-9.7 8.8 0 16 6.6 16.8 15.3 0.1 0.5 0.5 1 1 1.1C76.5 22.8 81.5 29 81.5 36 81.5 43.4 75.6 49.9 68.4 50.5zM39.5 60.8c-0.7 0-1.2 0.5-1.2 1.2v10.8c0 2.3-1.8 4.1-4.1 4.1H28c-0.6-2.7-3-4.7-5.8-4.7-3.3 0-6 2.7-6 6 0 3.3 2.7 6 6 6 2.9 0 5.3-2 5.8-4.7h6.2c3.6 0 6.5-2.9 6.5-6.5V62.1C40.8 61.4 40.2 60.8 39.5 60.8zM22.2 81.7c-1.9 0-3.5-1.6-3.5-3.5 0-1.9 1.6-3.5 3.5-3.5s3.5 1.6 3.5 3.5C25.7 80.1 24.1 81.7 22.2 81.7zM77.8 72.2c-2.9 0-5.3 2-5.8 4.7h-6.2c-2.3 0-4.1-1.8-4.1-4.1l0-10.8c0-0.7-0.5-1.2-1.2-1.2s-1.2 0.5-1.2 1.2l0 10.8c0 3.6 2.9 6.5 6.5 6.5H72c0.6 2.7 3 4.7 5.8 4.7 3.3 0 6-2.7 6-6C83.8 74.9 81.1 72.2 77.8 72.2zM77.8 81.7c-1.9 0-3.5-1.6-3.5-3.5 0-1.9 1.6-3.5 3.5-3.5s3.5 1.6 3.5 3.5C81.3 80.1 79.8 81.7 77.8 81.7zM51.2 85.1v-23c0-0.7-0.5-1.2-1.2-1.2-0.7 0-1.2 0.5-1.2 1.2v23c-2.8 0.6-4.9 3-4.9 6 0 3.4 2.7 6.1 6.1 6.1s6.1-2.7 6.1-6.1C56.1 88.1 54 85.6 51.2 85.1zM50 94.6c-2 0-3.5-1.6-3.5-3.5s1.6-3.5 3.5-3.5 3.5 1.6 3.5 3.5S52 94.6 50 94.6z" fill="#1ebbd7" data-fill-palette-color="accent"></path></svg></g></svg></g><g></g></svg></g></svg></g></svg></g><defs></defs></svg><rect width="395.52" height="217.04226817437188" fill="none" stroke="none" visibility="hidden"></rect></g></svg></g></svg>